<svg width="28" height="28" viewBox="0 0 28 28" fill="none" xmlns="http://www.w3.org/2000/svg">
<path fill-rule="evenodd" clip-rule="evenodd" d="M0.650839 14C0.650863 13.1322 1.35436 12.4287 2.22215 12.4287L12.5719 12.429L12.5716 2.07924C12.5716 1.21146 13.2751 0.50796 14.1429 0.507936C15.0106 0.507911 15.7141 1.21137 15.7142 2.07915L15.7145 12.4291L26.0634 12.4294C26.9312 12.4294 27.6347 13.1329 27.6347 14.0007C27.6346 14.8685 26.9311 15.572 26.0633 15.5719L15.7145 15.5716L15.7148 25.9204C15.7149 26.7882 15.0114 27.4917 14.1436 27.4917C13.2758 27.4918 12.5723 26.7883 12.5723 25.9205L12.572 15.5716L2.22206 15.5713C1.35427 15.5712 0.650814 14.8677 0.650839 14Z" fill="#4CAF50"/>
</svg>
